# Blender 4.4.0
# www.blender.org
mtllib SciFiStaircase.mtl
o Staircase
v -2.000000 1.700000 -4.100000
v -2.000000 1.900000 -4.100000
v -2.000000 1.700000 -4.900000
v -2.000000 1.900000 -4.900000
v 2.000000 1.700000 -4.100000
v 2.000000 1.900000 -4.100000
v 2.000000 1.700000 -4.900000
v 2.000000 1.900000 -4.900000
v -2.000000 -0.100000 0.400000
v -2.000000 0.100000 0.400000
v -2.000000 -0.100000 -0.400000
v -2.000000 0.100000 -0.400000
v 2.000000 -0.100000 0.400000
v 2.000000 0.100000 0.400000
v 2.000000 -0.100000 -0.400000
v 2.000000 0.100000 -0.400000
v -2.000000 0.200000 -0.350000
v -2.000000 0.400000 -0.350000
v -2.000000 0.200000 -1.150000
v -2.000000 0.400000 -1.150000
v 2.000000 0.200000 -0.350000
v 2.000000 0.400000 -0.350000
v 2.000000 0.200000 -1.150000
v 2.000000 0.400000 -1.150000
v -2.000000 0.500000 -1.100000
v -2.000000 0.700000 -1.100000
v -2.000000 0.500000 -1.900000
v -2.000000 0.700000 -1.900000
v 2.000000 0.500000 -1.100000
v 2.000000 0.700000 -1.100000
v 2.000000 0.500000 -1.900000
v 2.000000 0.700000 -1.900000
v -2.000000 0.800000 -1.850000
v -2.000000 1.000000 -1.850000
v -2.000000 0.800000 -2.650000
v -2.000000 1.000000 -2.650000
v 2.000000 0.800000 -1.850000
v 2.000000 1.000000 -1.850000
v 2.000000 0.800000 -2.650000
v 2.000000 1.000000 -2.650000
v -2.000000 1.100000 -2.599999
v -2.000000 1.300000 -2.599999
v -2.000000 1.100000 -3.400000
v -2.000000 1.300000 -3.400000
v 2.000000 1.100000 -2.599999
v 2.000000 1.300000 -2.599999
v 2.000000 1.100000 -3.400000
v 2.000000 1.300000 -3.400000
v -2.000000 1.400000 -3.349999
v -2.000000 1.600000 -3.349999
v -2.000000 1.400000 -4.150000
v -2.000000 1.600000 -4.150000
v 2.000000 1.400000 -3.349999
v 2.000000 1.600000 -3.349999
v 2.000000 1.400000 -4.150000
v 2.000000 1.600000 -4.150000
v -2.000000 1.700000 -4.100000
v -2.000000 1.900000 -4.100000
v -2.000000 1.700000 -4.900000
v -2.000000 1.900000 -4.900000
v 2.000000 1.700000 -4.100000
v 2.000000 1.900000 -4.100000
v 2.000000 1.700000 -4.900000
v 2.000000 1.900000 -4.900000
v -2.000000 -0.100000 0.400000
v -2.000000 0.100000 0.400000
v -2.000000 -0.100000 -0.400000
v -2.000000 0.100000 -0.400000
v 2.000000 -0.100000 0.400000
v 2.000000 0.100000 0.400000
v 2.000000 -0.100000 -0.400000
v 2.000000 0.100000 -0.400000
v -2.000000 0.200000 -0.350000
v -2.000000 0.400000 -0.350000
v -2.000000 0.200000 -1.150000
v -2.000000 0.400000 -1.150000
v 2.000000 0.200000 -0.350000
v 2.000000 0.400000 -0.350000
v 2.000000 0.200000 -1.150000
v 2.000000 0.400000 -1.150000
v -2.000000 0.500000 -1.100000
v -2.000000 0.700000 -1.100000
v -2.000000 0.500000 -1.900000
v -2.000000 0.700000 -1.900000
v 2.000000 0.500000 -1.100000
v 2.000000 0.700000 -1.100000
v 2.000000 0.500000 -1.900000
v 2.000000 0.700000 -1.900000
v -2.000000 0.800000 -1.850000
v -2.000000 1.000000 -1.850000
v -2.000000 0.800000 -2.650000
v -2.000000 1.000000 -2.650000
v 2.000000 0.800000 -1.850000
v 2.000000 1.000000 -1.850000
v 2.000000 0.800000 -2.650000
v 2.000000 1.000000 -2.650000
v -2.000000 1.100000 -2.599999
v -2.000000 1.300000 -2.599999
v -2.000000 1.100000 -3.400000
v -2.000000 1.300000 -3.400000
v 2.000000 1.100000 -2.599999
v 2.000000 1.300000 -2.599999
v 2.000000 1.100000 -3.400000
v 2.000000 1.300000 -3.400000
v -2.000000 1.400000 -3.349999
v -2.000000 1.600000 -3.349999
v -2.000000 1.400000 -4.150000
v -2.000000 1.600000 -4.150000
v 2.000000 1.400000 -3.349999
v 2.000000 1.600000 -3.349999
v 2.000000 1.400000 -4.150000
v 2.000000 1.600000 -4.150000
v -2.000000 3.800000 -9.349999
v -2.000000 4.000000 -9.349999
v -2.000000 3.800000 -10.150000
v -2.000000 4.000000 -10.150000
v 2.000000 3.800000 -9.349999
v 2.000000 4.000000 -9.349999
v 2.000000 3.800000 -10.150000
v 2.000000 4.000000 -10.150000
v -2.000000 2.000000 -4.849999
v -2.000000 2.200000 -4.849999
v -2.000000 2.000000 -5.650000
v -2.000000 2.200000 -5.650000
v 2.000000 2.000000 -4.849999
v 2.000000 2.200000 -4.849999
v 2.000000 2.000000 -5.650000
v 2.000000 2.200000 -5.650000
v -2.000000 2.300000 -5.599999
v -2.000000 2.500000 -5.599999
v -2.000000 2.300000 -6.400000
v -2.000000 2.500000 -6.400000
v 2.000000 2.300000 -5.599999
v 2.000000 2.500000 -5.599999
v 2.000000 2.300000 -6.400000
v 2.000000 2.500000 -6.400000
v -2.000000 2.600000 -6.349999
v -2.000000 2.800000 -6.349999
v -2.000000 2.600000 -7.150000
v -2.000000 2.800000 -7.150000
v 2.000000 2.600000 -6.349999
v 2.000000 2.800000 -6.349999
v 2.000000 2.600000 -7.150000
v 2.000000 2.800000 -7.150000
v -2.000000 2.900000 -7.099999
v -2.000000 3.100000 -7.099999
v -2.000000 2.900000 -7.900000
v -2.000000 3.100000 -7.900000
v 2.000000 2.900000 -7.099999
v 2.000000 3.100000 -7.099999
v 2.000000 2.900000 -7.900000
v 2.000000 3.100000 -7.900000
v -2.000000 3.200000 -7.849999
v -2.000000 3.400000 -7.849999
v -2.000000 3.200000 -8.650000
v -2.000000 3.400000 -8.650000
v 2.000000 3.200000 -7.849999
v 2.000000 3.400000 -7.849999
v 2.000000 3.200000 -8.650000
v 2.000000 3.400000 -8.650000
v -2.000000 3.500000 -8.599998
v -2.000000 3.700000 -8.599998
v -2.000000 3.500000 -9.400000
v -2.000000 3.700000 -9.400000
v 2.000000 3.500000 -8.599998
v 2.000000 3.700000 -8.599998
v 2.000000 3.500000 -9.400000
v 2.000000 3.700000 -9.400000
v -2.000000 3.800000 -9.349999
v -2.000000 4.000000 -9.349999
v -2.000000 3.800000 -10.150000
v -2.000000 4.000000 -10.150000
v 2.000000 3.800000 -9.349999
v 2.000000 4.000000 -9.349999
v 2.000000 3.800000 -10.150000
v 2.000000 4.000000 -10.150000
v -2.000000 2.000000 -4.849999
v -2.000000 2.200000 -4.849999
v -2.000000 2.000000 -5.650000
v -2.000000 2.200000 -5.650000
v 2.000000 2.000000 -4.849999
v 2.000000 2.200000 -4.849999
v 2.000000 2.000000 -5.650000
v 2.000000 2.200000 -5.650000
v -2.000000 2.300000 -5.599999
v -2.000000 2.500000 -5.599999
v -2.000000 2.300000 -6.400000
v -2.000000 2.500000 -6.400000
v 2.000000 2.300000 -5.599999
v 2.000000 2.500000 -5.599999
v 2.000000 2.300000 -6.400000
v 2.000000 2.500000 -6.400000
v -2.000000 2.600000 -6.349999
v -2.000000 2.800000 -6.349999
v -2.000000 2.600000 -7.150000
v -2.000000 2.800000 -7.150000
v 2.000000 2.600000 -6.349999
v 2.000000 2.800000 -6.349999
v 2.000000 2.600000 -7.150000
v 2.000000 2.800000 -7.150000
v -2.000000 2.900000 -7.099999
v -2.000000 3.100000 -7.099999
v -2.000000 2.900000 -7.900000
v -2.000000 3.100000 -7.900000
v 2.000000 2.900000 -7.099999
v 2.000000 3.100000 -7.099999
v 2.000000 2.900000 -7.900000
v 2.000000 3.100000 -7.900000
v -2.000000 3.200000 -7.849999
v -2.000000 3.400000 -7.849999
v -2.000000 3.200000 -8.650000
v -2.000000 3.400000 -8.650000
v 2.000000 3.200000 -7.849999
v 2.000000 3.400000 -7.849999
v 2.000000 3.200000 -8.650000
v 2.000000 3.400000 -8.650000
v -2.000000 3.500000 -8.599998
v -2.000000 3.700000 -8.599998
v -2.000000 3.500000 -9.400000
v -2.000000 3.700000 -9.400000
v 2.000000 3.500000 -8.599998
v 2.000000 3.700000 -8.599998
v 2.000000 3.500000 -9.400000
v 2.000000 3.700000 -9.400000
v -2.000000 -0.400000 1.150000
v -2.000000 -0.200000 1.150000
v -2.000000 -0.400000 0.350000
v -2.000000 -0.200000 0.350000
v 2.000000 -0.400000 1.150000
v 2.000000 -0.200000 1.150000
v 2.000000 -0.400000 0.350000
v 2.000000 -0.200000 0.350000
vn 1.0000 -0.0000 -0.0000
vn -0.0000 -0.0000 1.0000
vn -1.0000 -0.0000 -0.0000
vn -0.0000 -0.0000 -1.0000
vn -0.0000 1.0000 -0.0000
vn -0.0000 -1.0000 -0.0000
vt 0.375000 0.000000
vt 0.375000 0.250000
vt 0.625000 0.250000
vt 0.625000 0.000000
vt 0.375000 0.500000
vt 0.625000 0.500000
vt 0.375000 0.750000
vt 0.625000 0.750000
vt 0.375000 1.000000
vt 0.625000 1.000000
vt 0.125000 0.500000
vt 0.125000 0.750000
vt 0.875000 0.750000
vt 0.875000 0.500000
s 0
usemtl GreyMaterial
f 1/1/1 3/2/1 4/3/1 2/4/1
f 3/2/2 7/5/2 8/6/2 4/3/2
f 7/5/3 5/7/3 6/8/3 8/6/3
f 5/7/4 1/9/4 2/10/4 6/8/4
f 3/11/5 1/12/5 5/7/5 7/5/5
f 8/6/6 6/8/6 2/13/6 4/14/6
f 9/1/1 11/2/1 12/3/1 10/4/1
f 11/2/2 15/5/2 16/6/2 12/3/2
f 15/5/3 13/7/3 14/8/3 16/6/3
f 13/7/4 9/9/4 10/10/4 14/8/4
f 11/11/5 9/12/5 13/7/5 15/5/5
f 16/6/6 14/8/6 10/13/6 12/14/6
f 17/1/1 19/2/1 20/3/1 18/4/1
f 19/2/2 23/5/2 24/6/2 20/3/2
f 23/5/3 21/7/3 22/8/3 24/6/3
f 21/7/4 17/9/4 18/10/4 22/8/4
f 19/11/5 17/12/5 21/7/5 23/5/5
f 24/6/6 22/8/6 18/13/6 20/14/6
f 25/1/1 27/2/1 28/3/1 26/4/1
f 27/2/2 31/5/2 32/6/2 28/3/2
f 31/5/3 29/7/3 30/8/3 32/6/3
f 29/7/4 25/9/4 26/10/4 30/8/4
f 27/11/5 25/12/5 29/7/5 31/5/5
f 32/6/6 30/8/6 26/13/6 28/14/6
f 33/1/1 35/2/1 36/3/1 34/4/1
f 35/2/2 39/5/2 40/6/2 36/3/2
f 39/5/3 37/7/3 38/8/3 40/6/3
f 37/7/4 33/9/4 34/10/4 38/8/4
f 35/11/5 33/12/5 37/7/5 39/5/5
f 40/6/6 38/8/6 34/13/6 36/14/6
f 41/1/1 43/2/1 44/3/1 42/4/1
f 43/2/2 47/5/2 48/6/2 44/3/2
f 47/5/3 45/7/3 46/8/3 48/6/3
f 45/7/4 41/9/4 42/10/4 46/8/4
f 43/11/5 41/12/5 45/7/5 47/5/5
f 48/6/6 46/8/6 42/13/6 44/14/6
f 49/1/1 51/2/1 52/3/1 50/4/1
f 51/2/2 55/5/2 56/6/2 52/3/2
f 55/5/3 53/7/3 54/8/3 56/6/3
f 53/7/4 49/9/4 50/10/4 54/8/4
f 51/11/5 49/12/5 53/7/5 55/5/5
f 56/6/6 54/8/6 50/13/6 52/14/6
f 57/1/3 58/4/3 60/3/3 59/2/3
f 59/2/4 60/3/4 64/6/4 63/5/4
f 63/5/1 64/6/1 62/8/1 61/7/1
f 61/7/2 62/8/2 58/10/2 57/9/2
f 59/11/6 63/5/6 61/7/6 57/12/6
f 64/6/5 60/14/5 58/13/5 62/8/5
f 65/1/3 66/4/3 68/3/3 67/2/3
f 67/2/4 68/3/4 72/6/4 71/5/4
f 71/5/1 72/6/1 70/8/1 69/7/1
f 69/7/2 70/8/2 66/10/2 65/9/2
f 67/11/6 71/5/6 69/7/6 65/12/6
f 72/6/5 68/14/5 66/13/5 70/8/5
f 73/1/3 74/4/3 76/3/3 75/2/3
f 75/2/4 76/3/4 80/6/4 79/5/4
f 79/5/1 80/6/1 78/8/1 77/7/1
f 77/7/2 78/8/2 74/10/2 73/9/2
f 75/11/6 79/5/6 77/7/6 73/12/6
f 80/6/5 76/14/5 74/13/5 78/8/5
f 81/1/3 82/4/3 84/3/3 83/2/3
f 83/2/4 84/3/4 88/6/4 87/5/4
f 87/5/1 88/6/1 86/8/1 85/7/1
f 85/7/2 86/8/2 82/10/2 81/9/2
f 83/11/6 87/5/6 85/7/6 81/12/6
f 88/6/5 84/14/5 82/13/5 86/8/5
f 89/1/3 90/4/3 92/3/3 91/2/3
f 91/2/4 92/3/4 96/6/4 95/5/4
f 95/5/1 96/6/1 94/8/1 93/7/1
f 93/7/2 94/8/2 90/10/2 89/9/2
f 91/11/6 95/5/6 93/7/6 89/12/6
f 96/6/5 92/14/5 90/13/5 94/8/5
f 97/1/3 98/4/3 100/3/3 99/2/3
f 99/2/4 100/3/4 104/6/4 103/5/4
f 103/5/1 104/6/1 102/8/1 101/7/1
f 101/7/2 102/8/2 98/10/2 97/9/2
f 99/11/6 103/5/6 101/7/6 97/12/6
f 104/6/5 100/14/5 98/13/5 102/8/5
f 105/1/3 106/4/3 108/3/3 107/2/3
f 107/2/4 108/3/4 112/6/4 111/5/4
f 111/5/1 112/6/1 110/8/1 109/7/1
f 109/7/2 110/8/2 106/10/2 105/9/2
f 107/11/6 111/5/6 109/7/6 105/12/6
f 112/6/5 108/14/5 106/13/5 110/8/5
f 113/1/1 115/2/1 116/3/1 114/4/1
f 115/2/2 119/5/2 120/6/2 116/3/2
f 119/5/3 117/7/3 118/8/3 120/6/3
f 117/7/4 113/9/4 114/10/4 118/8/4
f 115/11/5 113/12/5 117/7/5 119/5/5
f 120/6/6 118/8/6 114/13/6 116/14/6
f 121/1/1 123/2/1 124/3/1 122/4/1
f 123/2/2 127/5/2 128/6/2 124/3/2
f 127/5/3 125/7/3 126/8/3 128/6/3
f 125/7/4 121/9/4 122/10/4 126/8/4
f 123/11/5 121/12/5 125/7/5 127/5/5
f 128/6/6 126/8/6 122/13/6 124/14/6
f 129/1/1 131/2/1 132/3/1 130/4/1
f 131/2/2 135/5/2 136/6/2 132/3/2
f 135/5/3 133/7/3 134/8/3 136/6/3
f 133/7/4 129/9/4 130/10/4 134/8/4
f 131/11/5 129/12/5 133/7/5 135/5/5
f 136/6/6 134/8/6 130/13/6 132/14/6
f 137/1/1 139/2/1 140/3/1 138/4/1
f 139/2/2 143/5/2 144/6/2 140/3/2
f 143/5/3 141/7/3 142/8/3 144/6/3
f 141/7/4 137/9/4 138/10/4 142/8/4
f 139/11/5 137/12/5 141/7/5 143/5/5
f 144/6/6 142/8/6 138/13/6 140/14/6
f 145/1/1 147/2/1 148/3/1 146/4/1
f 147/2/2 151/5/2 152/6/2 148/3/2
f 151/5/3 149/7/3 150/8/3 152/6/3
f 149/7/4 145/9/4 146/10/4 150/8/4
f 147/11/5 145/12/5 149/7/5 151/5/5
f 152/6/6 150/8/6 146/13/6 148/14/6
f 153/1/1 155/2/1 156/3/1 154/4/1
f 155/2/2 159/5/2 160/6/2 156/3/2
f 159/5/3 157/7/3 158/8/3 160/6/3
f 157/7/4 153/9/4 154/10/4 158/8/4
f 155/11/5 153/12/5 157/7/5 159/5/5
f 160/6/6 158/8/6 154/13/6 156/14/6
f 161/1/1 163/2/1 164/3/1 162/4/1
f 163/2/2 167/5/2 168/6/2 164/3/2
f 167/5/3 165/7/3 166/8/3 168/6/3
f 165/7/4 161/9/4 162/10/4 166/8/4
f 163/11/5 161/12/5 165/7/5 167/5/5
f 168/6/6 166/8/6 162/13/6 164/14/6
f 169/1/3 170/4/3 172/3/3 171/2/3
f 171/2/4 172/3/4 176/6/4 175/5/4
f 175/5/1 176/6/1 174/8/1 173/7/1
f 173/7/2 174/8/2 170/10/2 169/9/2
f 171/11/6 175/5/6 173/7/6 169/12/6
f 176/6/5 172/14/5 170/13/5 174/8/5
f 177/1/3 178/4/3 180/3/3 179/2/3
f 179/2/4 180/3/4 184/6/4 183/5/4
f 183/5/1 184/6/1 182/8/1 181/7/1
f 181/7/2 182/8/2 178/10/2 177/9/2
f 179/11/6 183/5/6 181/7/6 177/12/6
f 184/6/5 180/14/5 178/13/5 182/8/5
f 185/1/3 186/4/3 188/3/3 187/2/3
f 187/2/4 188/3/4 192/6/4 191/5/4
f 191/5/1 192/6/1 190/8/1 189/7/1
f 189/7/2 190/8/2 186/10/2 185/9/2
f 187/11/6 191/5/6 189/7/6 185/12/6
f 192/6/5 188/14/5 186/13/5 190/8/5
f 193/1/3 194/4/3 196/3/3 195/2/3
f 195/2/4 196/3/4 200/6/4 199/5/4
f 199/5/1 200/6/1 198/8/1 197/7/1
f 197/7/2 198/8/2 194/10/2 193/9/2
f 195/11/6 199/5/6 197/7/6 193/12/6
f 200/6/5 196/14/5 194/13/5 198/8/5
f 201/1/3 202/4/3 204/3/3 203/2/3
f 203/2/4 204/3/4 208/6/4 207/5/4
f 207/5/1 208/6/1 206/8/1 205/7/1
f 205/7/2 206/8/2 202/10/2 201/9/2
f 203/11/6 207/5/6 205/7/6 201/12/6
f 208/6/5 204/14/5 202/13/5 206/8/5
f 209/1/3 210/4/3 212/3/3 211/2/3
f 211/2/4 212/3/4 216/6/4 215/5/4
f 215/5/1 216/6/1 214/8/1 213/7/1
f 213/7/2 214/8/2 210/10/2 209/9/2
f 211/11/6 215/5/6 213/7/6 209/12/6
f 216/6/5 212/14/5 210/13/5 214/8/5
f 217/1/3 218/4/3 220/3/3 219/2/3
f 219/2/4 220/3/4 224/6/4 223/5/4
f 223/5/1 224/6/1 222/8/1 221/7/1
f 221/7/2 222/8/2 218/10/2 217/9/2
f 219/11/6 223/5/6 221/7/6 217/12/6
f 224/6/5 220/14/5 218/13/5 222/8/5
f 225/1/3 226/4/3 228/3/3 227/2/3
f 227/2/4 228/3/4 232/6/4 231/5/4
f 231/5/1 232/6/1 230/8/1 229/7/1
f 229/7/2 230/8/2 226/10/2 225/9/2
f 227/11/6 231/5/6 229/7/6 225/12/6
f 232/6/5 228/14/5 226/13/5 230/8/5
o Supporter
v -0.100000 -0.821069 -0.004738
v -0.100000 -0.263977 0.218082
v -0.100000 3.263978 -10.218082
v -0.100000 3.821069 -9.995262
v 0.100000 -0.821069 -0.004738
v 0.100000 -0.263977 0.218082
v 0.100000 3.263978 -10.218082
v 0.100000 3.821069 -9.995262
vn -1.0000 -0.0000 -0.0000
vn -0.0000 0.3714 -0.9285
vn 1.0000 -0.0000 -0.0000
vn -0.0000 -0.3714 0.9285
vn -0.0000 -0.9285 -0.3714
vn -0.0000 0.9285 0.3714
vt 0.375000 0.000000
vt 0.625000 0.000000
vt 0.625000 0.250000
vt 0.375000 0.250000
vt 0.625000 0.500000
vt 0.375000 0.500000
vt 0.625000 0.750000
vt 0.375000 0.750000
vt 0.625000 1.000000
vt 0.375000 1.000000
vt 0.125000 0.500000
vt 0.125000 0.750000
vt 0.875000 0.500000
vt 0.875000 0.750000
s 0
usemtl GreyMaterial
f 233/15/7 234/16/7 236/17/7 235/18/7
f 235/18/8 236/17/8 240/19/8 239/20/8
f 239/20/9 240/19/9 238/21/9 237/22/9
f 237/22/10 238/21/10 234/23/10 233/24/10
f 235/25/11 239/20/11 237/22/11 233/26/11
f 240/19/12 236/27/12 234/28/12 238/21/12
